Coordinates
version=1
nRows=54
nColumns=12
inDegrees=yes

Units are S.I. units (second, meters, Newtons, ...)
Angles are in degrees

endheader
time	SC_y	SC_z	SC_x	AC_y	AC_z	AC_x	GH_y	GH_z	GH_yy	EL_x	PS_y
       0.0              -11.32          12.72          32.01          69.87         -8.096         -4.003         -97.83           17.4          176.0          21.06          58.55
   0.02292              -11.32          12.72          32.01          69.87         -8.095         -4.001          -97.8          17.39          175.9          21.06          58.55
   0.04584              -11.32          12.72          32.01          69.87         -8.093         -3.998         -97.77          17.39          175.9          21.06          58.55
   0.06876              -11.32          12.72          32.01          69.87         -8.092         -3.994         -97.73          17.39          175.8          21.06          58.54
   0.09167              -11.32          12.72           32.0          69.87          -8.09         -3.991         -97.69          17.39          175.7          21.06          58.54
    0.1146              -11.32          12.73           32.0          69.86         -8.088         -3.987         -97.65          17.39          175.7          21.06          58.54
    0.1375              -11.32          12.73           32.0          69.86         -8.087         -3.983         -97.61          17.39          175.6          21.06          58.54
    0.1604              -11.32          12.73          31.99          69.86         -8.085         -3.979         -97.56          17.39          175.5          21.06          58.54
    0.1833              -11.32          12.73          31.99          69.86         -8.082         -3.975         -97.51          17.39          175.4          21.06          58.53
    0.2063              -11.32          12.74          31.98          69.86          -8.08          -3.97         -97.45          17.38          175.4          21.06          58.53
    0.2292              -11.33          12.74          31.98          69.85         -8.078         -3.965          -97.4          17.38          175.3          21.06          58.53
    0.2521              -11.33          12.74          31.97          69.85         -8.075         -3.959         -97.33          17.38          175.2          21.06          58.53
     0.275              -11.33          12.75          31.97          69.85         -8.072         -3.953         -97.26          17.38          175.1          21.06          58.52
    0.2979              -11.33          12.75          31.96          69.85         -8.069         -3.947         -97.19          17.38          174.9          21.06          58.52
    0.3209              -11.33          12.75          31.96          69.84         -8.066          -3.94         -97.11          17.38          174.8          21.06          58.51
    0.3438              -11.33          12.76          31.95          69.84         -8.062         -3.932         -97.03          17.37          174.7          21.06          58.51
    0.3667              -11.34          12.76          31.94          69.84         -8.058         -3.924         -96.93          17.37          174.5          21.06          58.51
    0.3896              -11.34          12.77          31.93          69.83         -8.054         -3.915         -96.83          17.37          174.4          21.06           58.5
    0.4125              -11.34          12.77          31.93          69.83         -8.049         -3.905         -96.72          17.36          174.2          21.06           58.5
    0.4355              -11.34          12.78          31.92          69.82         -8.044         -3.895          -96.6          17.36          174.0          21.06          58.49
    0.4584              -11.35          12.79           31.9          69.82         -8.038         -3.883         -96.46          17.36          173.8          21.06          58.48
    0.4813              -11.35          12.79          31.89          69.81         -8.032          -3.87         -96.32          17.35          173.5          21.06          58.48
    0.5042              -11.35           12.8          31.88           69.8         -8.025         -3.855         -96.15          17.35          173.3          21.06          58.47
    0.5271              -11.36          12.81          31.87           69.8         -8.018          -3.84         -95.97          17.34          173.0          21.06          58.46
      0.55              -11.36          12.82          31.85          69.79         -8.009         -3.822         -95.77          17.34          172.7          21.06          58.45
     0.573              -11.37          12.83          31.83          69.78           -8.0         -3.802         -95.55          17.33          172.3          21.06          58.44
    0.5959              -11.37          12.84          31.81          69.77          -7.99          -3.78          -95.3          17.32          171.9          21.06          58.43
    0.6188              -11.38          12.86          31.79          69.76         -7.978         -3.755         -95.02          17.32          171.5          21.07          58.41
    0.6417              -11.39          12.87          31.76          69.75         -7.964         -3.727          -94.7          17.31          171.0          21.07           58.4
    0.6646               -11.4          12.89          31.74          69.73         -7.949         -3.696         -94.34           17.3          170.4          21.07          58.38
    0.6876               -11.4          12.91           31.7          69.72         -7.932         -3.659         -93.93          17.28          169.7          21.07          58.36
    0.7105              -11.42          12.94          31.67           69.7         -7.912         -3.618         -93.45          17.27          169.0          21.07          58.34
    0.7334              -11.43          12.96          31.62          69.68         -7.889          -3.57         -92.91          17.26          168.1          21.07          58.31
    0.7563              -11.44           13.0          31.57          69.65         -7.862         -3.514         -92.27          17.24          167.1          21.07          58.28
    0.7792              -11.46          13.03          31.51          69.62         -7.831         -3.448         -91.53          17.22          165.9          21.07          58.24
    0.8022              -11.48          13.08          31.44          69.59         -7.794         -3.371         -90.65          17.19          164.5          21.07           58.2
    0.8251               -11.5          13.13          31.36          69.54          -7.75          -3.28         -89.61          17.16          162.9          21.07          58.15
     0.848              -11.53          13.19          31.26          69.49         -7.698          -3.17         -88.37          17.13          160.9          21.07          58.09
    0.8709              -11.56          13.27          31.14          69.43         -7.635         -3.037         -86.86          17.08          158.5          21.07          58.01
    0.8938              -11.61          13.36          30.99          69.36         -7.557         -2.875         -85.01          17.03          155.5          21.07          57.92
    0.9167              -11.66          13.48          30.81          69.27         -7.461         -2.674         -82.74          16.97          151.9          21.07          57.81
    0.9397              -11.72          13.62          30.59          69.16         -7.342         -2.425          -79.9          16.89          147.4          21.08          57.67
    0.9626               -11.8           13.8           30.3          69.02         -7.192          -2.11         -76.33          16.78          141.7          21.08           57.5
    0.9855              -11.91          14.03          29.94          68.83         -7.001          -1.71         -71.78          16.65          134.5          21.08          57.28
     1.008              -12.04          14.32          29.48           68.6         -6.757         -1.198         -65.97          16.49          125.2          21.09          56.99
     1.031              -12.21           14.7          28.88          68.31         -6.443         -0.541          -58.5          16.28          113.3          21.09          56.63
     1.054              -12.42          15.18          28.13          67.93         -6.042         0.2983         -48.97          16.01          98.16           21.1          56.16
     1.077              -12.69          15.78          27.17          67.45         -5.538          1.354         -36.99          15.67          79.07          21.11          55.57
       1.1              -13.02          16.52          26.01          66.87         -4.924          2.639         -22.38          15.25          55.82          21.12          54.86
     1.123               -13.4          17.37          24.66          66.19         -4.212           4.13         -5.447          14.77          28.86          21.13          54.03
     1.146              -13.82          18.29          23.21          65.46         -3.442          5.744          12.89          14.25        -0.3327          21.14          53.14
     1.169              -14.23          19.22          21.75          64.73         -2.671          7.358          31.22          13.73         -29.52          21.16          52.24
     1.192              -14.62          20.07           20.4          64.06         -1.959          8.848          48.15          13.24         -56.48          21.17          51.41
     1.215              -14.95           20.8          19.24          63.48         -1.345          10.13          62.76          12.83         -79.74          21.18           50.7
